<svg xmlns="http://www.w3.org/2000/svg" width="22.71" height="17.457" viewBox="0 0 22.71 17.457">
  <g id="Grupo_16" data-name="Grupo 16" transform="translate(-2770.947 -1227.132)">
    <path id="Caminho_11" data-name="Caminho 11" d="M2793,1227.146l-.034-.014h-21.341l-.036.015a1.048,1.048,0,0,0-.635.641l-.01.031v4.293l.013.034a.946.946,0,0,0,1.034.636c.083-.006.171-.005.263,0v10.8a.885.885,0,0,0,1.019,1.012h18.041a.9.9,0,0,0,1.024-1.03V1232.78h.362a.867.867,0,0,0,.948-.948q0-.549,0-1.1c0-.825,0-1.677.008-2.515A1.014,1.014,0,0,0,2793,1227.146Zm-2.376,5.655v10.078h-16.656V1232.8Zm1.31-3.944v2.207h-19.289v-2.207Z" transform="translate(0)" fill="#4cffde"/>
    <path id="Caminho_12" data-name="Caminho 12" d="M2953.182,1381.833c.333.048,1.155.06,1.862.06.637,0,1.182-.009,1.193-.01a2.162,2.162,0,0,0,1.509-3.668,2.122,2.122,0,0,0-1.5-.644c-.858-.011-1.743-.012-2.706,0a2.154,2.154,0,0,0-2.114,1.916A2.1,2.1,0,0,0,2953.182,1381.833Zm2.983-2.566a.46.46,0,1,1,0,.918c-.809,0-1.641,0-2.544,0a.458.458,0,0,1-.5-.452.44.44,0,0,1,.121-.322.538.538,0,0,1,.385-.144h1.675C2955.582,1379.266,2955.876,1379.265,2956.165,1379.268Z" transform="translate(-172.588 -143.862)" fill="#4cffde"/>
  </g>
</svg>
