<svg xmlns="http://www.w3.org/2000/svg" width="13.596" height="21.661" viewBox="0 0 13.596 21.661">
  <g id="Grupo_17" data-name="Grupo 17" transform="translate(-2758.425 123.119)">
    <path id="Caminho_14" data-name="Caminho 14" d="M2772.02-107.852q0-.878,0-1.756v-11.242a2.081,2.081,0,0,0-1.711-2.235l-.008,0-.049-.029h-10.039l-.035.013c-.067.024-.134.046-.207.07a2.859,2.859,0,0,0-.494.2,2.006,2.006,0,0,0-1,1.319c-.01.04-.021.079-.032.119l-.023.082v18.064l.007.027c.01.035.019.069.029.1.021.079.042.16.069.242a2.072,2.072,0,0,0,1.932,1.421c1.806,0,3.457.005,5.009.005,1.585,0,3.067,0,4.5-.006a2.053,2.053,0,0,0,2.045-2.088C2772.022-104.985,2772.021-106.443,2772.02-107.852Zm-10.495-13.606h.214q0,.259,0,.514c0,.6,0,1.17,0,1.749a.384.384,0,0,1-.358.384c-.343.012-.68.009-1.038.007l-.256,0c0-.669,0-1.425,0-2.159,0-.34.155-.492.5-.493Zm-1.2,4.315h.927a2.066,2.066,0,0,0,2.148-2.155c0-.537,0-1.075,0-1.621v-.539h6.427c.394,0,.534.142.534.543v17.258c0,.4-.141.537-.54.537h-9.2c-.4,0-.537-.141-.537-.54v-13.484Z" transform="translate(0 0)" fill="#4cffde"/>
    <path id="Caminho_15" data-name="Caminho 15" d="M2848.308,64.657c.705.623,1.434,1.262,2.167,1.9a.817.817,0,0,0,1.167,0c.7-.608,1.43-1.247,2.167-1.9a.828.828,0,0,0,.157-1.157c-.236-.36-.479-.724-.714-1.076l-.365-.546a.847.847,0,0,0-.752-.4c-.25,0-.505,0-.752,0h-.644c-.24,0-.489,0-.733,0a.872.872,0,0,0-.787.412c-.166.252-.337.508-.5.756-.186.278-.378.565-.564.849A.827.827,0,0,0,2848.308,64.657Zm1.6-.8.053-.082c.138-.211.269-.41.407-.6a.115.115,0,0,1,.036-.019c.392-.008.81-.008,1.315,0l.016,0c.143.2.279.409.423.627l.049.074-1.149,1.008Z" transform="translate(-85.838 -176.928)" fill="#4cffde"/>
    <path id="Caminho_16" data-name="Caminho 16" d="M2875.927,298.036c-.762,0-1.55,0-2.34,0a.83.83,0,0,0-.876.816.811.811,0,0,0,.226.585.9.9,0,0,0,.649.258h1.52c.269,0,.548,0,.822,0a.832.832,0,0,0,.875-.816.811.811,0,0,0-.228-.587A.9.9,0,0,0,2875.927,298.036Z" transform="translate(-109.535 -403.645)" fill="#4cffde"/>
  </g>
</svg>
