<svg xmlns="http://www.w3.org/2000/svg" width="20.121" height="17.303" viewBox="0 0 20.121 17.303">
  <g id="_8Ot0Al.tif" data-name="8Ot0Al.tif" transform="translate(-1232.329 -1260.092)">
    <g id="Grupo_7" data-name="Grupo 7" transform="translate(1232.329 1260.092)">
      <path id="Caminho_9" data-name="Caminho 9" d="M1232.329,1275.345v-13.2c.01-.016.028-.031.03-.047a2.385,2.385,0,0,1,2.457-2.007c1.839.027,3.68.007,5.52.007q4.842,0,9.685,0a2.343,2.343,0,0,1,2.424,2.352q.011,6.294-.007,12.588a2.387,2.387,0,0,1-.222.982,2.288,2.288,0,0,1-2.235,1.371q-6.335,0-12.671,0c-.9,0-1.794.01-2.691-.006a2.276,2.276,0,0,1-1.829-.954A2.939,2.939,0,0,1,1232.329,1275.345Zm1.572-7.011.035.02,3.22-4.7,2.611,3.259,1.181-1.7c.064.081.117.146.168.213q2.85,3.7,5.7,7.408a.341.341,0,0,0,.306.156c1.185-.006,2.37,0,3.556,0,.063,0,.126-.006.194-.01,0-.048.006-.08.006-.112q0-5.185,0-10.369a.782.782,0,0,0-.846-.827q-7.642,0-15.283,0a.785.785,0,0,0-.843.849q0,2.376,0,4.753Zm16.971,6.228h-.252c-1.414,0-2.828,0-4.243,0a.4.4,0,0,1-.357-.177q-2.436-3.178-4.882-6.35c-.038-.049-.081-.094-.133-.154l-4.863,6.987-1.289-.9c.063-.093.114-.167.165-.241q1.85-2.658,3.7-5.314a.216.216,0,0,0-.012-.316c-.453-.551-.894-1.112-1.34-1.668-.035-.043-.074-.082-.116-.129-.026.032-.044.051-.059.072q-1.613,2.356-3.223,4.715a.478.478,0,0,0-.069.254q-.006,1.8,0,3.593a1.2,1.2,0,0,0,.02.253.8.8,0,0,0,.892.625h15.124c.059,0,.118,0,.177,0a.778.778,0,0,0,.755-.735C1250.881,1274.92,1250.872,1274.757,1250.872,1274.563Z" transform="translate(-1232.329 -1260.092)" fill="#4cffde"/>
      <path id="Caminho_10" data-name="Caminho 10" d="M1549.621,1334.525a2.358,2.358,0,1,1,2.359,2.361A2.354,2.354,0,0,1,1549.621,1334.525Zm2.353-.781a.784.784,0,0,0,0,1.569.784.784,0,1,0,0-1.569Z" transform="translate(-1537.129 -1329.334)" fill="#4cffde"/>
    </g>
  </g>
</svg>
