<svg xmlns="http://www.w3.org/2000/svg" xmlns:xlink="http://www.w3.org/1999/xlink" width="17.679" height="17.677" viewBox="0 0 17.679 17.677">
  <defs>
    <clipPath id="clip-path">
      <rect id="Retângulo_854" data-name="Retângulo 854" width="17.679" height="17.677" transform="translate(0 0)" fill="#4cffde"/>
    </clipPath>
  </defs>
  <g id="Grupo_584" data-name="Grupo 584" transform="translate(0 0)">
    <g id="Grupo_583" data-name="Grupo 583" clip-path="url(#clip-path)">
      <path id="Caminho_70" data-name="Caminho 70" d="M17.679,16.813v.345a.738.738,0,0,1-.712.519q-8.128,0-16.257,0a.736.736,0,0,1-.188-.018A.694.694,0,0,1,0,16.886a.687.687,0,0,1,.7-.59H6.759V13.671H6.543q-2.916,0-5.833,0A.675.675,0,0,1,0,12.985Q0,8.145,0,3.3a.67.67,0,0,1,.678-.678c.581,0,1.162,0,1.743,0h.191V1.38c-.239,0-.468,0-.7,0a.69.69,0,0,1-.66-.531A.705.705,0,0,1,1.612.075c.05-.026.1-.05.151-.075H4.871A.185.185,0,0,0,4.91.03a.7.7,0,0,1,.47.8.7.7,0,0,1-.734.548H4.022V2.615h9.642V1.38c-.24,0-.469,0-.7,0a.688.688,0,0,1-.66-.532A.7.7,0,0,1,12.66.075c.05-.026.1-.05.151-.075h3.107a.473.473,0,0,0,.056.035.7.7,0,0,1,.454.795.7.7,0,0,1-.73.55h-.632V2.624c.642,0,1.273-.01,1.9.007a.874.874,0,0,1,.456.157,1.335,1.335,0,0,1,.254.353V13.153a.812.812,0,0,1-.867.524c-1.9-.014-3.8-.006-5.7-.006h-.194V16.3H16.95a.682.682,0,0,1,.694.461.473.473,0,0,0,.035.056M16.29,4.016H1.4v8.265H16.29ZM8.157,16.286H9.521v-2.6H8.157Z" fill="#4cffde"/>
      <path id="Caminho_71" data-name="Caminho 71" d="M8.838,7.927c.066-.1.118-.168.168-.243q.641-.961,1.281-1.922a.7.7,0,0,1,1.25,0q1.346,2.014,2.687,4.03a.7.7,0,0,1-.069.928.686.686,0,0,1-.885.059,1.113,1.113,0,0,1-.236-.27q-1.008-1.5-2.009-3.01c-.032-.048-.065-.094-.112-.163-.043.06-.078.109-.111.158Q9.774,9.036,8.744,10.577a.691.691,0,0,1-1.2-.017.666.666,0,0,1,.023-.719c.119-.189.252-.371.367-.563A.2.2,0,0,0,7.944,9.1C7.567,8.523,7.183,7.95,6.8,7.377c-.006-.008-.019-.011-.04-.023-.035.048-.071.1-.105.148Q5.636,9.029,4.617,10.556a.695.695,0,1,1-1.176-.737c.4-.615.815-1.224,1.223-1.836L6.136,5.774a.7.7,0,0,1,1.269,0c.473.707.944,1.414,1.433,2.148" fill="#4cffde"/>
    </g>
  </g>
</svg>
