<svg xmlns="http://www.w3.org/2000/svg" width="49" height="49" viewBox="0 0 49 49">
  <g id="Grupo_568" data-name="Grupo 568" transform="translate(-1551 -15)">
    <circle id="Elipse_1" data-name="Elipse 1" cx="24.5" cy="24.5" r="24.5" transform="translate(1551 15)" fill="#121212"/>
    <g id="xOE6ET.tif" transform="translate(332.671 -1195.384)">
      <g id="Grupo_5" data-name="Grupo 5" transform="translate(1232.329 1224.384)">
        <path id="Caminho_6" data-name="Caminho 6" d="M1243.233,1224.384c.414.079.837.129,1.242.242a5.909,5.909,0,0,1,3.411,2.5,5.8,5.8,0,0,1,1,3.486,5.971,5.971,0,0,1-2.405,4.681c-.059.046-.119.09-.214.161a10.524,10.524,0,0,1,5.113,3.846,10.376,10.376,0,0,1,1.942,6.066h-1.628a8.8,8.8,0,0,0-3.9-7.3,8.506,8.506,0,0,0-5.458-1.527,8.9,8.9,0,0,0-8.377,8.841h-1.629v-.615a1.368,1.368,0,0,0,.034-.176,9.733,9.733,0,0,1,.727-3.136,10.447,10.447,0,0,1,6.054-5.9l.236-.094c-.092-.069-.152-.113-.211-.159a5.973,5.973,0,0,1-2.406-4.681,5.8,5.8,0,0,1,1-3.487,5.907,5.907,0,0,1,3.411-2.5c.405-.113.827-.163,1.242-.242Zm4.017,6.074a4.427,4.427,0,1,0-4.444,4.42A4.44,4.44,0,0,0,1247.25,1230.458Z" transform="translate(-1232.329 -1224.384)" fill="#4cffde"/>
      </g>
    </g>
  </g>
</svg>
