<svg xmlns="http://www.w3.org/2000/svg" width="19.954" height="19.949" viewBox="0 0 19.954 19.949">
  <path id="Caminho_29" data-name="Caminho 29" d="M2764.528-356.338c-.412-1.167-.793-2.344-1.176-3.521a.876.876,0,0,0-.624-.652h-15.9a.877.877,0,0,0-.624.651c-.461,1.408-.934,2.813-1.4,4.219v1.13c.1.367.173.743.305,1.1a3.05,3.05,0,0,0,.961,1.3.4.4,0,0,1,.163.344c0,2.986,0,5.973,0,8.959a2.135,2.135,0,0,0,1.076,1.963,2.142,2.142,0,0,0,1.136.286q2.074,0,4.148,0,4.275,0,8.55,0a2.125,2.125,0,0,0,2.152-1.768,3.074,3.074,0,0,0,.033-.543q0-4.44,0-8.881a.424.424,0,0,1,.166-.362,3.54,3.54,0,0,0,1.266-2.7A4.07,4.07,0,0,0,2764.528-356.338ZM2756.191-342h-2.825v-5.676h2.825Zm5.715-9.087v8.24c0,.594-.262.86-.851.861h-3.427v-.249q0-3.01,0-6.019c0-.594-.259-.852-.855-.853q-2,0-3.994,0c-.584,0-.846.262-.846.841q0,3.01,0,6.019v.26h-.416q-1.51,0-3.019,0a.737.737,0,0,1-.843-.849q0-4.13,0-8.259v-.217c.1.013.176.025.255.034a3.452,3.452,0,0,0,2.439-.591.237.237,0,0,1,.32,0,3.581,3.581,0,0,0,3.963-.008.217.217,0,0,1,.289-.008,3.574,3.574,0,0,0,4.013-.008c.037-.025.077-.047.126-.077a3.631,3.631,0,0,0,1.344.628,3.576,3.576,0,0,0,1.5.019Zm.467-1.944a2.1,2.1,0,0,1-2.7-.3.738.738,0,0,0-1.219-.014,2.142,2.142,0,0,1-3.059.008.762.762,0,0,0-1.23.006,2.144,2.144,0,0,1-3.031.008.776.776,0,0,0-1.271.019,2.013,2.013,0,0,1-2.169.512,2.061,2.061,0,0,1-1.439-1.729,2.5,2.5,0,0,1-.016-.281l.1-.767a5.332,5.332,0,0,1,.189-.678c.011-.048.019-.1.034-.143.244-.735.489-1.47.738-2.2l.011-.034h0c.034-.1.068-.2.1-.3.021-.062.1-.146.157-.146l.265,0h.058c.625-.005,1.252,0,1.894,0v0l11.949,0h.207c.1,0,.168,0,.206.121l.024.074.857,2.581s.116.393.184.737.112.771.112.771A2.078,2.078,0,0,1,2762.372-353.035Z" transform="translate(-2744.805 360.511)" fill="#4cffde"/>
</svg>
