<svg xmlns="http://www.w3.org/2000/svg" width="25.311" height="21.408" viewBox="0 0 25.311 21.408">
  <g id="Grupo_15" data-name="Grupo 15" transform="translate(-2647.737 368.021)">
    <path id="Caminho_23" data-name="Caminho 23" d="M2871.756-250.933q0-.677,0-1.354v-9.18a1.774,1.774,0,0,0-1.448-1.9l-.057-.034h-8.236l-.042.016c-.053.02-.11.038-.165.056a2.393,2.393,0,0,0-.418.166,1.719,1.719,0,0,0-.856,1.13c-.008.032-.017.064-.026.1l-.021.078v14.773l.009.034.022.084c.018.065.035.133.058.2a1.778,1.778,0,0,0,1.658,1.219c1.488,0,2.826,0,4.09,0,1.292,0,2.494,0,3.676,0a1.76,1.76,0,0,0,1.754-1.789c0-1.177,0-2.364,0-3.512Zm-8.654-10.946h.09q0,.149,0,.3v.038c0,.491,0,.954,0,1.427a.228.228,0,0,1-.21.23c-.282.01-.568.007-.844.005h-.125c0-.524,0-1.109,0-1.679,0-.231.088-.317.323-.318Zm-.905,3.524h.681a1.768,1.768,0,0,0,1.839-1.844c0-.438,0-.875,0-1.32v-.359h5.163c.275,0,.351.077.351.358v14.092c0,.277-.077.353-.356.353h-7.511c-.278,0-.354-.076-.354-.356v-10.925Z" transform="translate(-205.526 -101.066)" fill="#4cffde"/>
    <path id="Caminho_24" data-name="Caminho 24" d="M2950.366-76.061c.577.51,1.172,1.032,1.77,1.551a.809.809,0,0,0,.534.222.806.806,0,0,0,.531-.22c.571-.5,1.167-1.018,1.77-1.551a.763.763,0,0,0,.143-1.055c-.191-.292-.388-.586-.578-.871l-.009-.013-.294-.441a.775.775,0,0,0-.682-.361h0c-.2,0-.394,0-.613,0h-.044c-.073,0-.146,0-.221,0h-.263c-.2,0-.4,0-.595,0a.794.794,0,0,0-.715.374c-.137.207-.276.415-.41.617l0,0c-.151.226-.307.459-.459.691A.762.762,0,0,0,2950.366-76.061Zm1.475-.734,0-.006c.107-.164.209-.319.316-.47.3-.006.627-.006,1.015,0,.108.155.212.312.321.477l-.827.725Z" transform="translate(-292.075 -279.402)" fill="#4cffde"/>
    <path id="Caminho_25" data-name="Caminho 25" d="M2977.483,157.75c-.623,0-1.266,0-1.912,0a.759.759,0,0,0-.8.75.744.744,0,0,0,.209.539.822.822,0,0,0,.589.236h1.242c.219,0,.446,0,.672,0a.761.761,0,0,0,.8-.75.746.746,0,0,0-.21-.54A.818.818,0,0,0,2977.483,157.75Z" transform="translate(-315.934 -507.922)" fill="#4cffde"/>
    <path id="Caminho_26" data-name="Caminho 26" d="M2649.261-352.047v-12.758c0-.379,0-.78,0-1.178v-.28a.233.233,0,0,1,.232-.232h7.638c.275,0,.351.077.351.358v.947h1.524v-.894a1.773,1.773,0,0,0-1.448-1.9l-.057-.034h-8.236l-.042.016c-.054.02-.11.038-.165.056a2.391,2.391,0,0,0-.418.166,1.719,1.719,0,0,0-.856,1.13c-.008.032-.017.064-.026.1l-.021.078v14.773l.01.034.022.084c.017.065.035.133.058.2a1.778,1.778,0,0,0,1.658,1.219c1.488,0,2.826,0,4.09,0h.226v-1.527h-4.186C2649.338-351.691,2649.261-351.768,2649.261-352.047Z" fill="#4cffde"/>
    <path id="Caminho_27" data-name="Caminho 27" d="M3072.63-366.558c-.009-.032-.018-.064-.026-.1a1.719,1.719,0,0,0-.856-1.13,2.391,2.391,0,0,0-.418-.166c-.055-.018-.112-.036-.165-.056l-.042-.016h-8.236l-.057.034a1.774,1.774,0,0,0-1.448,1.9v.894h1.525v-.947c0-.281.075-.358.351-.358h7.638a.232.232,0,0,1,.232.232v.28c0,.4,0,.8,0,1.178v12.758c0,.279-.076.356-.354.356h-4.186v1.527h.226c1.264,0,2.6,0,4.09,0a1.778,1.778,0,0,0,1.659-1.219c.022-.069.041-.137.058-.2.007-.028.015-.056.022-.084l.009-.034v-14.773Z" transform="translate(-399.603)" fill="#4cffde"/>
  </g>
</svg>
