<svg xmlns="http://www.w3.org/2000/svg" width="18.419" height="18.413" viewBox="0 0 18.419 18.413">
  <g id="Grupo_131" data-name="Grupo 131" transform="translate(-230.267 -409.469)">
    <path id="Caminho_51" data-name="Caminho 51" d="M230.357,413.669a1.456,1.456,0,0,0,1.367.965h15.507a1.459,1.459,0,0,0,1.452-1.451q0-1.131,0-2.263a1.458,1.458,0,0,0-1.453-1.45q-7.75,0-15.507,0a1.42,1.42,0,0,0-1.317.85,2.112,2.112,0,0,0-.086.208l.322.211-.35-.137a.374.374,0,0,0-.025.137v2.622a.5.5,0,0,0,.034.158Zm16.828-.529a1.379,1.379,0,0,1-.154,0H231.9a.252.252,0,0,0-.13.025c-.008-.745-.008-1.489,0-2.206.027,0,.055,0,.093,0h15.2a.252.252,0,0,0,.13-.025C247.193,411.679,247.193,412.424,247.185,413.14Z" fill="#4cffde"/>
    <path id="Caminho_52" data-name="Caminho 52" d="M237.6,415.355q-2.247-.009-4.5,0h-1.331a1.377,1.377,0,0,0-1.1.477,2.5,2.5,0,0,0-.267.428l-.086.159a.381.381,0,0,0-.05.188v10a.36.36,0,0,0,.017.113,1.552,1.552,0,0,0,.77.987,2.521,2.521,0,0,0,.251.108l.092.036a.382.382,0,0,0,.142.028h6.315a.385.385,0,0,0,.2-.063,1.476,1.476,0,0,0,1.065-1.539V416.9A1.472,1.472,0,0,0,237.6,415.355Zm-5.83,11.035h-.01a.611.611,0,0,1,0-.074v-9.4c0-.033,0-.056,0-.068a.453.453,0,0,1,.078-.005h5.71c.033,0,.056,0,.067,0a.448.448,0,0,1,0,.077V426.3c0,.04,0,.067,0,.083a.627.627,0,0,1-.075,0h-5.771Z" fill="#4cffde"/>
    <path id="Caminho_53" data-name="Caminho 53" d="M248.654,423.156a1.48,1.48,0,0,0-1.552-1.18h-5.675a2.389,2.389,0,0,0-.241.011,1.479,1.479,0,0,0-1.354,1.461q-.012,1.485,0,2.973a1.427,1.427,0,0,0,.7,1.232,2.078,2.078,0,0,0,.3.149l.108.046a.381.381,0,0,0,.156.034h6.315a.434.434,0,0,0,.195-.058,1.451,1.451,0,0,0,1.077-1.484v-2.848A1.508,1.508,0,0,0,248.654,423.156Zm-4.405,3.235h-2.795c-.058,0-.1,0-.117,0a.905.905,0,0,1-.006-.126v-2.724c0-.034,0-.058,0-.069a.429.429,0,0,1,.075,0h5.71c.035,0,.058,0,.07,0a.568.568,0,0,1,.005.077q0,1.387,0,2.775c0,.031,0,.053,0,.066a.489.489,0,0,1-.079.005Z" fill="#4cffde"/>
    <path id="Caminho_54" data-name="Caminho 54" d="M241.336,421.258h5.885a1.467,1.467,0,0,0,1.462-1.458v-.355c0-.878,0-1.756-.007-2.635a1.555,1.555,0,0,0-.186-.7,1.459,1.459,0,0,0-1.373-.761H241.4c-.062,0-.125,0-.186.008a1.484,1.484,0,0,0-1.387,1.49q-.006,1.458,0,2.918A1.47,1.47,0,0,0,241.336,421.258Zm5.888-1.5a.283.283,0,0,1-.106.012H241.46c-.062,0-.1,0-.123,0a1.256,1.256,0,0,1-.006-.137l.053-2.787,5.807.056C247.194,417.835,247.194,418.771,247.224,419.755Z" fill="#4cffde"/>
  </g>
</svg>
