<svg xmlns="http://www.w3.org/2000/svg" width="20.252" height="20.251" viewBox="0 0 20.252 20.251">
  <g id="h1jgCr.tif" transform="translate(-1232.329 -1224.384)">
    <g id="Grupo_6" data-name="Grupo 6" transform="translate(1232.329 1224.384)">
      <path id="Caminho_7" data-name="Caminho 7" d="M1232.329,1239.1h1.582v.224q0,1.414,0,2.827a.808.808,0,0,0,.9.9h15.282a.808.808,0,0,0,.9-.9q0-7.641,0-15.282a.808.808,0,0,0-.9-.9h-15.282a.808.808,0,0,0-.9.9c0,1.008,0,2.015,0,3.051h-1.582v-3.441a.812.812,0,0,0,.036-.111,2.351,2.351,0,0,1,.977-1.554,2.8,2.8,0,0,1,1.084-.432h16.058a.531.531,0,0,0,.091.033,2.358,2.358,0,0,1,2,2.382q0,7.71,0,15.419a2.63,2.63,0,0,1-.131.813,2.355,2.355,0,0,1-2.32,1.6h-15.34c-.053,0-.106,0-.158,0a2.362,2.362,0,0,1-1.815-.941,2.734,2.734,0,0,1-.482-1.153Z" transform="translate(-1232.329 -1224.384)" fill="#4cffde"/>
      <path id="Caminho_8" data-name="Caminho 8" d="M1232.329,1361.689h11.317l-2.937-2.936,1.115-1.117,4.855,4.856-4.849,4.849-1.08-1.08,2.936-2.934-.023-.055h-11.333Z" transform="translate(-1232.329 -1352.354)" fill="#4cffde"/>
    </g>
  </g>
</svg>
