<svg xmlns="http://www.w3.org/2000/svg" width="21.721" height="18.364" viewBox="0 0 21.721 18.364">
  <g id="nQADbe" transform="translate(-2799.373 -1163.125)">
    <g id="Grupo_9" data-name="Grupo 9" transform="translate(2799.373 1163.125)">
      <path id="Caminho_13" data-name="Caminho 13" d="M2810.229,1165.63v1.659a11,11,0,0,0-4.118.621l-.014.05a2.757,2.757,0,0,0,.238.206,3.588,3.588,0,0,0,1.246.484,15.665,15.665,0,0,0,6.417-.049,4.1,4.1,0,0,0,1.488-.64,1.325,1.325,0,0,0,.583-1.255,1.04,1.04,0,0,0-.331-.624,2.867,2.867,0,0,0-1.017-.639,8.114,8.114,0,0,0-2.12-.51,21.246,21.246,0,0,0-5.717.112,11.863,11.863,0,0,0-3.616,1.08,4.715,4.715,0,0,0-1.705,1.339,2.45,2.45,0,0,0-.51,1.407,1.208,1.208,0,0,0,.231.764,3.9,3.9,0,0,0,1.4,1.138,11.553,11.553,0,0,0,3,1.057,21.109,21.109,0,0,0,5.4.457,23.611,23.611,0,0,0,4.391-.535,8.842,8.842,0,0,0,2.677-.988,4.59,4.59,0,0,0,.757-.591,1.662,1.662,0,0,0,.512-1.274c0-.249,0-.5,0-.756h1.671v.14q0,4.078,0,8.156a3,3,0,0,1-.858,2.07,6.743,6.743,0,0,1-2.311,1.569,16.279,16.279,0,0,1-4.459,1.194,23.893,23.893,0,0,1-4.895.159,18.429,18.429,0,0,1-5.665-1.2,7.991,7.991,0,0,1-2.2-1.272,3.524,3.524,0,0,1-1.21-1.733,2.953,2.953,0,0,1-.113-.776c-.008-2.46,0-4.92-.007-7.38a4.344,4.344,0,0,1,1.53-3.352,8.447,8.447,0,0,1,2.969-1.658,16.621,16.621,0,0,1,3.455-.766,24.263,24.263,0,0,1,3.784-.155,13.79,13.79,0,0,1,3.58.52,5.466,5.466,0,0,1,2.087,1.1,2.851,2.851,0,0,1,.078,4.224,4.892,4.892,0,0,1-2.09,1.14,12.85,12.85,0,0,1-2.8.459,17.372,17.372,0,0,1-3.054-.022,10.1,10.1,0,0,1-2.813-.63,2.933,2.933,0,0,1-1.309-.938,1.651,1.651,0,0,1-.257-1.771,1.7,1.7,0,0,1,.74-.737,5.918,5.918,0,0,1,1.942-.628,15.7,15.7,0,0,1,2.868-.225Zm-7.515,9.177c.517,0,1.011,0,1.5,0,.134,0,.176.03.175.172-.005,1.3,0,2.591,0,3.887a.151.151,0,0,0,.135.176c.294.076.584.163.878.238.213.054.429.1.659.146v-2.1h1.67v.167q0,1.033,0,2.066c0,.071,0,.132.1.139.483.032.967.071,1.45.106a1.056,1.056,0,0,0,.128-.007v-4.139h1.665v4.137a.373.373,0,0,0,.068.01c.506-.035,1.012-.073,1.518-.106.086-.006.087-.057.087-.12q0-.625,0-1.25c0-.33,0-.66,0-1h1.674v2.116c.506-.133.99-.266,1.476-.385a.218.218,0,0,0,.2-.257c-.008-1.282,0-2.565-.008-3.847,0-.109.024-.148.142-.146.457.008.915,0,1.373,0h.158v3.474a.274.274,0,0,0,.063-.015,4.437,4.437,0,0,0,1.2-.9,1.429,1.429,0,0,0,.41-.978c0-1.432,0-2.864,0-4.3,0-.039-.006-.078-.01-.141-.057.036-.1.064-.137.088-.344.191-.679.4-1.036.566a13.648,13.648,0,0,1-3.357.971,27.453,27.453,0,0,1-4.04.389,22.46,22.46,0,0,1-5.759-.56,12.325,12.325,0,0,1-3.549-1.365c-.157-.094-.31-.2-.476-.3,0,.041-.008.067-.008.092q0,2.3,0,4.594a1.22,1.22,0,0,0,.218.7,3.191,3.191,0,0,0,.917.858c.164.109.335.206.53.325Z" transform="translate(-2799.373 -1163.125)" fill="#4cffde"/>
    </g>
  </g>
</svg>
