<svg xmlns="http://www.w3.org/2000/svg" width="24.502" height="21.375" viewBox="0 0 24.502 21.375">
  <g id="Grupo_454" data-name="Grupo 454" transform="translate(-327.694 -395.168)">
    <path id="Caminho_55" data-name="Caminho 55" d="M352.169,407.812a.327.327,0,0,1-.021-.046,3.172,3.172,0,0,0-2.485-2.616,6.149,6.149,0,0,0-1.434-.1c-.155,0-.314,0-.471,0h-.077a2.957,2.957,0,0,0-1.978.729,6.823,6.823,0,0,0-.693.74c-.076.091-.154.181-.232.271l-.037-.035a5.607,5.607,0,0,0-3.424-1.655c-.545-.052-1.106-.053-1.637-.05h-.4a5.769,5.769,0,0,0-4.14,1.719l-.065.059a3.193,3.193,0,0,0-2.472-1.739,8.644,8.644,0,0,0-1.224-.043c-.125,0-.249,0-.375,0a3.311,3.311,0,0,0-3.3,3.309q0,2.561,0,5.123a1.477,1.477,0,0,0,1.546,1.541h4.2a1.864,1.864,0,0,0,1.937,1.529h.024c2.3-.022,4.639-.017,6.9-.014l2.372,0h0a1.655,1.655,0,0,0,1.406-.7,3,3,0,0,0,.306-.594c.032-.076.064-.152.1-.229h4.156a1.485,1.485,0,0,0,1.34-.764,2.149,2.149,0,0,0,.143-.3c.018-.045.038-.09.057-.134l.009-5.925Zm-5.718,2.961a6.587,6.587,0,0,0-.295-1.771,1.868,1.868,0,0,1,.223-1.62,1.693,1.693,0,0,1,1.285-.707,7.539,7.539,0,0,1,1.471.03,1.61,1.61,0,0,1,1.431,1.6c.013,1.219.01,2.459.007,3.657,0,.471,0,.942-.006,1.414h-4.113v-1.1Q346.454,411.524,346.451,410.773Zm-1.619,2.8c0,.368,0,.735,0,1.1,0,.186-.028.233-.275.233h-9.18c-.293,0-.313-.021-.313-.314v-1.1q0-1.278,0-2.556a4.149,4.149,0,0,1,3.556-4.209,10.126,10.126,0,0,1,1.487-.121,5.725,5.725,0,0,1,1.825.274,4.2,4.2,0,0,1,2.893,3.9C344.841,411.716,344.836,412.66,344.832,413.573Zm-11.4-.194h-4.117V408.49a1.708,1.708,0,0,1,1.825-1.826h.254a6.656,6.656,0,0,1,.989.041,1.67,1.67,0,0,1,1.439,1.637,2.124,2.124,0,0,1-.12.724,3.252,3.252,0,0,0-.117.5c-.084.659-.132,1.207-.15,1.726-.017.5-.011,1-.006,1.484C333.433,412.971,333.436,413.167,333.434,413.379Z" fill="#4cffde"/>
    <path id="Caminho_56" data-name="Caminho 56" d="M337.493,402.845a4.167,4.167,0,0,0,3.226.718,4.229,4.229,0,0,0,.753-8.108,6.47,6.47,0,0,0-.673-.2c-.1-.026-.2-.052-.3-.081l-1.072,0-.04.009a.351.351,0,0,0-.039.019.177.177,0,0,1-.04.018,4.233,4.233,0,0,0-1.811,7.631Zm-.152-3.451a2.628,2.628,0,0,1,2.6-2.6h0a2.6,2.6,0,1,1,0,5.208h0a2.629,2.629,0,0,1-2.6-2.607Z" fill="#4cffde"/>
    <path id="Caminho_57" data-name="Caminho 57" d="M331.582,403.625h0a2.71,2.71,0,0,0,.016-5.419h0a2.71,2.71,0,0,0-.015,5.419Zm-1.076-2.715a1.091,1.091,0,0,1,.336-.768,1.077,1.077,0,0,1,.745-.312h.019a1.108,1.108,0,0,1,1.071,1.09,1.094,1.094,0,0,1-.337.768,1.079,1.079,0,0,1-.744.312h-.021A1.1,1.1,0,0,1,330.506,400.91Z" fill="#4cffde"/>
    <path id="Caminho_58" data-name="Caminho 58" d="M348.288,403.625h0a2.71,2.71,0,0,0,.019-5.419h0a2.71,2.71,0,0,0-.019,5.419ZM348.3,402H348.3a1.1,1.1,0,0,1-.77-.337,1.077,1.077,0,0,1-.311-.764,1.105,1.105,0,0,1,1.083-1.069h.007a1.1,1.1,0,0,1,.77.337,1.076,1.076,0,0,1,.311.764A1.105,1.105,0,0,1,348.3,402Z" fill="#4cffde"/>
  </g>
</svg>
